<?xml version="1.0" encoding="UTF-8" standalone="no"?>
<svg width="12px" height="29px" viewBox="0 0 12 29" version="1.1" xmlns="http://www.w3.org/2000/svg" xmlns:xlink="http://www.w3.org/1999/xlink">
    <!-- Generator: Sketch 3.6 (26304) - http://www.bohemiancoding.com/sketch -->
    <title>Shape</title>
    <desc>Created with Sketch.</desc>
    <defs></defs>
    <g id="Design" stroke="none" stroke-width="1" fill="none" fill-rule="evenodd">
        <g id="V3" transform="translate(-1366.000000, -642.000000)" fill="#00DBC0">
            <path d="M1383.8993,656.887903 L1379.59395,661.075519 C1379.32635,661.33588 1379.32498,661.758966 1379.59031,662.02111 C1379.72366,662.153074 1379.89933,662.21861 1380.07455,662.21861 C1380.2484,662.21861 1380.42225,662.15352 1380.5556,662.024231 L1386.01693,656.712695 C1386.28454,656.452334 1386.2859,656.029248 1386.02058,655.767104 L1380.59929,650.416336 C1380.33396,650.153746 1379.90161,650.152854 1379.634,650.412769 C1379.3664,650.672684 1379.36458,651.096216 1379.63036,651.35836 L1383.87746,655.549988 L1358.46406,655.549988 C1358.08677,655.549988 1357.78139,655.849582 1357.78139,656.218723 C1357.78139,656.587865 1358.08677,656.887903 1358.46406,656.887903 L1383.8993,656.887903 Z" id="Shape" transform="translate(1372.000000, 656.218610) rotate(-270.000000) translate(-1372.000000, -656.218610) "></path>
        </g>
    </g>
</svg>