<?xml version="1.0" encoding="UTF-8" standalone="no"?>
<svg width="44px" height="35px" viewBox="0 0 44 35" version="1.1" xmlns="http://www.w3.org/2000/svg" xmlns:xlink="http://www.w3.org/1999/xlink">
    <!-- Generator: Sketch 3.6 (26304) - http://www.bohemiancoding.com/sketch -->
    <title>Fill 1</title>
    <desc>Created with Sketch.</desc>
    <defs></defs>
    <g id="Design" stroke="none" stroke-width="1" fill="none" fill-rule="evenodd">
        <g id="V3" transform="translate(-152.000000, -60.000000)" fill="#131E32">
            <path d="M158.307895,63.0173957 L162.679426,64.9492339 L154.647904,67.490769 L158.307895,63.0173957 L158.307895,63.0173957 Z M193.255699,67.490769 L185.224177,64.9492339 L189.595708,63.0173957 L193.255699,67.490769 L193.255699,67.490769 Z M183.809246,74.4789718 L192.884087,70.5732006 L176.047946,90.7524907 L183.809246,74.4789718 L183.809246,74.4789718 Z M154.621198,68.9233528 L163.918283,65.9812375 L163.918283,72.9246297 L154.621198,68.9233528 L154.621198,68.9233528 Z M164.094357,74.4789718 L171.855657,90.7524907 L155.019968,70.5732006 L164.094357,74.4789718 L164.094357,74.4789718 Z M164.345116,64.2005787 L160.480534,62.4932466 L166.052901,61.5943172 L164.345116,64.2005787 L164.345116,64.2005787 Z M165.600268,64.7622965 L167.503137,61.8582023 L171.809489,67.5663587 L165.600268,64.7622965 L165.600268,64.7622965 Z M182.303335,64.7622965 L176.094114,67.5663587 L180.400466,61.8582023 L182.303335,64.7622965 L182.303335,64.7622965 Z M183.558487,64.2005787 L181.851155,61.5943172 L187.423069,62.4932466 L183.558487,64.2005787 L183.558487,64.2005787 Z M183.98532,65.9812375 L193.282405,68.9233528 L183.98532,72.9246297 L183.98532,65.9812375 L183.98532,65.9812375 Z M175.532396,69.3103541 L182.627421,66.1061642 L182.627421,72.85764 L175.532396,69.3103541 L175.532396,69.3103541 Z M174.630751,70.377663 L182.406536,74.265329 L174.630751,90.5696269 L174.630751,70.377663 L174.630751,70.377663 Z M173.272852,70.377663 L173.272852,90.5696269 L165.497067,74.265329 L173.272852,70.377663 L173.272852,70.377663 Z M165.276182,66.1061642 L172.371207,69.3103541 L165.276182,72.85764 L165.276182,66.1061642 L165.276182,66.1061642 Z M195.89274,68.8961948 C195.90134,68.7468259 195.887761,68.7042784 195.876445,68.6612782 C195.837971,68.5263936 195.801761,68.4625723 195.756045,68.4050879 C195.753781,68.4023721 190.319468,61.7577177 190.319468,61.7577177 C190.21491,61.6296226 190.065541,61.5436223 189.90214,61.5173695 L180.547571,60.0087433 C180.299528,59.968459 180.04877,60.0693962 179.89759,60.2699126 L173.951801,68.1516133 L168.006013,60.2699126 C167.854833,60.0693962 167.604074,59.968459 167.356032,60.0087433 L158.001463,61.5173695 C157.838515,61.5436223 157.689146,61.6296226 157.584135,61.7577177 L152.152537,68.3964878 C152.102295,68.4625723 152.066084,68.5263936 152.040737,68.5960991 C152.016295,68.704731 152.002263,68.7468259 152,68.7925418 C152.015842,68.9414581 152.020821,68.9853635 152.033947,69.0274584 C152.087811,69.1487641 152.108632,69.1876906 152.13579,69.2248065 C152.14439,69.2361223 173.430368,94.7596518 173.430368,94.7596518 C173.510937,94.8325257 173.535379,94.8569679 173.564348,94.8773364 C173.678411,94.9384419 173.696969,94.9542841 173.720506,94.9628841 C173.782969,94.9791789 173.816917,94.9832526 173.851317,94.9886842 C173.985749,95 174.018791,94.9936631 174.052286,94.9886842 C174.163634,94.9655999 174.173592,94.9665051 174.183097,94.9628841 C174.279055,94.9121892 174.310287,94.8977049 174.339255,94.8773364 C174.435666,94.7913361 174.45694,94.779115 174.473235,94.7596518 L195.746992,69.2614698 C195.794971,69.1876906 195.816245,69.1487641 195.835255,69.1071219 C195.883234,68.9853635 195.888213,68.9410055 195.89274,68.8961948 Z" id="Fill-1"></path>
        </g>
    </g>
</svg>